<svg width="32" height="32" viewBox="0 0 32 32" fill="none" xmlns="http://www.w3.org/2000/svg">
  <defs>
    <linearGradient id="gradientFill" x1="0%" y1="0%" x2="100%" y2="100%">
      <stop offset="0%" style="stop-color:#9333ea;stop-opacity:1" />
      <stop offset="50%" style="stop-color:#ec4899;stop-opacity:1" />
      <stop offset="100%" style="stop-color:#2563eb;stop-opacity:1" />
    </linearGradient>
  </defs>
  
  <!-- Background circle -->
  <circle cx="16" cy="16" r="15" fill="white" stroke="url(#gradientFill)" stroke-width="2"/>
  
  <!-- Palette icon simplified -->
  <path d="M16 6C10.477 6 6 10.477 6 16c0 1.5.33 2.93.93 4.21.78 1.67 2.85 2.27 4.64 1.35.86-.44 1.93-.44 2.79 0 .86.44 1.85-.15 2.21-1.06.36-.91 1.35-1.5 2.32-1.35.97.15 1.86-.68 2.01-1.68C20.94 16.46 21 16.23 21 16c0-2.76-2.24-5-5-5z" fill="url(#gradientFill)"/>
  
  <!-- Color dots -->
  <circle cx="12" cy="12" r="1.5" fill="#ec4899"/>
  <circle cx="20" cy="12" r="1.5" fill="#2563eb"/>
  <circle cx="12" cy="20" r="1.5" fill="#9333ea"/>
  <circle cx="20" cy="20" r="1.5" fill="#06d6a0"/>
</svg>